<svg xmlns="http://www.w3.org/2000/svg" width="33.682" height="30.875" viewBox="0 0 33.682 30.875">
  <g id="Group_4" data-name="Group 4" transform="translate(-0.892 0.454)">
    <path id="iconmonstr-product-3" d="M16.139,31.875,4.21,25.511V19.963l7.578,4.381,4.351-4.78Zm1.4,0V19.515l4.438,4.692,7.491-4.151v5.455ZM3.033,17.664,0,15.918l4.21-4.634L0,7.322,12.235,1l4.512,3.347L21.413,1,33.682,7.4l-4.2,3.889,4.2,4.832-3.146,1.742h0l-8.284,4.589-4.7-4.97,10.408-5.56L16.842,5.786,5.723,11.921l10.416,5.525v.034l-4.627,5.083-7.3-4.221-.225-.129-.953-.552v0Z" transform="translate(0.892 -1.454)" fill="#fff" fill-rule="evenodd"/>
  </g>
</svg>
