
<svg xmlns="http://www.w3.org/2000/svg" width="20.986" height="35.976" viewBox="0 0 20.986 35.976">
  <path id="iconmonstr-currency-1" d="M25.986,24.233c0-6.429-6.693-8.219-11.823-10.629-3.116-1.617-2.722-5.483,1.742-5.744a19.209,19.209,0,0,1,7.324,1.393l1.085-4.939a27.683,27.683,0,0,0-7.323-1.261V0h-3V3.2c-5.831.8-8.946,4.46-8.946,8.544,0,7.309,8.534,8.424,11.326,9.724,3.807,1.7,3.1,5.247-.343,6.028-2.988.676-6.8-.505-9.669-1.617L5,30.806a20.77,20.77,0,0,0,8.994,2.178v2.992h3V32.821c4.966-.7,9-3.437,8.994-8.588Z" transform="translate(-5 0)" fill="#fff"/>
</svg>
