<svg xmlns="http://www.w3.org/2000/svg" width="44.922" height="35.378" viewBox="0 0 44.922 35.378">
  <g id="Group_2" data-name="Group 2" transform="translate(-0.642 -1.316)">
    <g id="gym" transform="translate(0.642 1.316)">
      <path id="Path_5" data-name="Path 5" d="M24.262,16.895,16.832,6.283,20.37,3.807,27.8,14.418Z" transform="translate(16.062 -3.807)" fill="#fff"/>
      <path id="Path_6" data-name="Path 6" d="M35.1,21.333l-3.715-5.305L13.7,28.411l3.715,5.306-3.537,2.477L3.972,22.045l3.537-2.477,3.715,5.306L28.909,12.491,25.194,7.185l3.537-2.477,9.907,14.148Z" transform="translate(1.156 -2.762)" fill="#fff"/>
      <path id="Path_7" data-name="Path 7" d="M22.095,10.312l3.537-2.477L23.155,4.3,19.618,6.775Z" transform="translate(19.29 -3.238)" fill="#fff"/>
      <path id="Path_8" data-name="Path 8" d="M13.055,24.742,5.625,14.131,2.088,16.608l7.43,10.611Z" transform="translate(-1.027 8.159)" fill="#fff"/>
      <path id="Path_9" data-name="Path 9" d="M7.61,20.454,4.073,22.93,1.6,19.393l3.537-2.477Z" transform="translate(-1.597 11.387)" fill="#fff"/>
    </g>
  </g>
</svg>
