<svg id="instagram_1_" data-name="instagram (1)" xmlns="http://www.w3.org/2000/svg" width="16.18" height="16.187" viewBox="0 0 16.18 16.187">
  <path id="Path_10" data-name="Path 10" d="M8.095,1.458c2.163,0,2.419.009,3.27.047a4.436,4.436,0,0,1,1.5.278,2.5,2.5,0,0,1,.93.6,2.537,2.537,0,0,1,.607.93,4.454,4.454,0,0,1,.278,1.5c.038.854.047,1.11.047,3.27s-.009,2.419-.047,3.27a4.436,4.436,0,0,1-.278,1.5,2.5,2.5,0,0,1-.6.93,2.537,2.537,0,0,1-.93.607,4.454,4.454,0,0,1-1.5.278c-.854.038-1.11.047-3.27.047s-2.419-.009-3.27-.047a4.436,4.436,0,0,1-1.5-.278,2.5,2.5,0,0,1-.93-.6,2.537,2.537,0,0,1-.607-.93,4.454,4.454,0,0,1-.278-1.5c-.038-.854-.047-1.11-.047-3.27s.009-2.419.047-3.27a4.435,4.435,0,0,1,.278-1.5,2.5,2.5,0,0,1,.6-.93,2.537,2.537,0,0,1,.93-.607,4.454,4.454,0,0,1,1.5-.278C5.676,1.467,5.932,1.458,8.095,1.458ZM8.095,0C5.9,0,5.622.009,4.759.047A5.915,5.915,0,0,0,2.8.424,3.951,3.951,0,0,0,1.36,1.36,3.966,3.966,0,0,0,.424,2.792,5.932,5.932,0,0,0,.047,4.756C.009,5.622,0,5.9,0,8.095s.009,2.473.047,3.336a5.915,5.915,0,0,0,.376,1.964A3.951,3.951,0,0,0,1.36,14.83a3.957,3.957,0,0,0,1.432.933,5.932,5.932,0,0,0,1.964.376c.863.038,1.138.047,3.336.047s2.473-.009,3.336-.047a5.915,5.915,0,0,0,1.964-.376A4.135,4.135,0,0,0,15.756,13.4a5.932,5.932,0,0,0,.376-1.964c.038-.863.047-1.138.047-3.336s-.009-2.473-.047-3.336A5.915,5.915,0,0,0,15.756,2.8,3.791,3.791,0,0,0,14.83,1.36,3.957,3.957,0,0,0,13.4.427,5.932,5.932,0,0,0,11.434.051C10.568.009,10.292,0,8.095,0h0Z" fill="#fff"/>
  <path id="Path_11" data-name="Path 11" d="M128.658,124.5a4.158,4.158,0,1,0,4.158,4.158A4.159,4.159,0,0,0,128.658,124.5Zm0,6.855a2.7,2.7,0,1,1,2.7-2.7A2.7,2.7,0,0,1,128.658,131.355Z" transform="translate(-120.563 -120.563)" fill="#fff"/>
  <path id="Path_12" data-name="Path 12" d="M363.941,89.571a.971.971,0,1,1-.971-.971A.971.971,0,0,1,363.941,89.571Z" transform="translate(-350.553 -85.798)" fill="#fff"/>
</svg>
