<svg xmlns="http://www.w3.org/2000/svg" width="50.971" height="26.024" viewBox="0 0 50.971 26.024">
  <g id="Group_3" data-name="Group 3" transform="translate(-0.868 1.057)">
    <path id="iconmonstr-clothing-8" d="M1.725,4.45h7.63L7.664,7.381a.435.435,0,0,0-.043.328.428.428,0,0,0,.2.261.431.431,0,0,0,.589-.158L10.351,4.45l1.941,3.362a.431.431,0,0,0,.79-.1.435.435,0,0,0-.043-.328L11.348,4.45h7.63L20.7,19.115l-8.6.863L10.4,14.47,8.677,19.978,0,19.115Zm17.252-.863H1.725V1H18.978Z" transform="translate(0.868 1.943)" fill="#fff" fill-rule="evenodd"/>
    <path id="iconmonstr-clothing-5" d="M12.58,26.028H6.486l.021-10.845L3.272,24.641,0,23.859,4.317,6.507,8.655,4.634c-.963-1.024-1.469-2.534,0-3.516A8.014,8.014,0,0,1,13.014,0a7.735,7.735,0,0,1,4.317,1.081c1.438.914.972,2.677,0,3.546l4.338,1.875,4.359,17.352-3.253.792-3.253-9.468L19.5,26.028H13.448V2.715c1.591-.054,2.82-.4,2.82-.811,0-.452-1.458-.819-3.253-.819S9.76,1.452,9.76,1.9c0,.414,1.229.757,2.82.811V26.028Zm3.845-7.614-.7.509,2.554,3.507.7-.509Zm-6.821,0,.7.509L7.749,22.429l-.7-.509L9.6,18.413Z" transform="translate(25.811 -1.061)" fill="#fff" fill-rule="evenodd"/>
  </g>
</svg>
