<svg xmlns="http://www.w3.org/2000/svg" width="17.526" height="14.237" viewBox="0 0 17.526 14.237">
  <path id="twitter_1_" data-name="twitter (1)" d="M17.426,65.684a7.09,7.09,0,0,1-2.064.565,3.615,3.615,0,0,0,1.581-1.988,7.229,7.229,0,0,1-2.283.873,3.6,3.6,0,0,0-6.126,3.279,10.2,10.2,0,0,1-7.409-3.758,3.6,3.6,0,0,0,1.112,4.8A3.6,3.6,0,0,1,.608,69v.044a3.6,3.6,0,0,0,2.885,3.525,3.6,3.6,0,0,1-.948.127,3.7,3.7,0,0,1-.678-.065,3.606,3.606,0,0,0,3.357,2.5,7.21,7.21,0,0,1-4.466,1.54A7.146,7.146,0,0,1-.1,76.621a10.168,10.168,0,0,0,5.513,1.615A10.161,10.161,0,0,0,15.643,68.008c0-.157,0-.311-.01-.465A7.236,7.236,0,0,0,17.426,65.684Z" transform="translate(0.1 -64)" fill="#fff"/>
</svg>
